<?xml version="1.0" encoding="UTF-8" standalone="no"?>
<svg
   viewBox="0 0 576 512"
   version="1.1"
   id="svg4298"
   sodipodi:docname="inkscape-exclamation-triangle-solid.svg"
   inkscape:version="1.2.2 (732a01da63, 2022-12-09)"
   xmlns:inkscape="http://www.inkscape.org/namespaces/inkscape"
   xmlns:sodipodi="http://sodipodi.sourceforge.net/DTD/sodipodi-0.dtd"
   xmlns:xlink="http://www.w3.org/1999/xlink"
   xmlns="http://www.w3.org/2000/svg"
   xmlns:svg="http://www.w3.org/2000/svg">
  <defs
     id="defs4302">
    <linearGradient
       id="linearGradient4786"
       inkscape:swatch="solid">
      <stop
         style="stop-color:#ffffff;stop-opacity:1;"
         offset="0"
         id="stop4784" />
    </linearGradient>
    <linearGradient
       inkscape:collect="always"
       xlink:href="#linearGradient4786"
       id="linearGradient4788"
       x1="-0.0002866781"
       y1="256"
       x2="575.99988"
       y2="256"
       gradientUnits="userSpaceOnUse"
       gradientTransform="matrix(0.69655958,0,0,0.70177665,77.969456,38.335025)" />
  </defs>
  <sodipodi:namedview
     id="namedview4300"
     pagecolor="#ffffff"
     bordercolor="#000000"
     borderopacity="0.25"
     inkscape:showpageshadow="2"
     inkscape:pageopacity="0.0"
     inkscape:pagecheckerboard="0"
     inkscape:deskcolor="#d1d1d1"
     showgrid="false"
     inkscape:zoom="1.5390625"
     inkscape:cx="251.77665"
     inkscape:cy="256"
     inkscape:window-width="1920"
     inkscape:window-height="986"
     inkscape:window-x="-11"
     inkscape:window-y="-11"
     inkscape:window-maximized="1"
     inkscape:current-layer="svg4298" />
  <!-- Font Awesome Pro 5.15.4 by @fontawesome - https://fontawesome.com License - https://fontawesome.com/license (Commercial License) -->
  <path
     fill="#000000"
     opacity="0.2"
     d="m 274.1929,11.248734 c -137.00001,0 -248.000011,111.000006 -248.000011,247.999986 0,137 111.000001,248 248.000011,248 137,0 248,-111 248,-248 0,-136.99998 -111,-247.999986 -248,-247.999986 z"
     id="path851" />
  <path
     d="m 474.67198,347.12587 c 12.8571,22.45264 -3.28149,50.5188 -28.96085,50.5188 h -334.2692 c -25.72882,0 -41.792878,-28.10966 -28.960857,-50.5188 L 249.61776,55.167138 c 12.86337,-22.463169 45.08134,-22.422466 57.92171,0 z M 278.57862,286.76396 c -17.6961,0 -32.04174,14.45309 -32.04174,32.28172 0,17.82864 14.34564,32.28173 32.04174,32.28173 17.6961,0 32.04174,-14.45309 32.04174,-32.28173 0,-17.82863 -14.34564,-32.28172 -32.04174,-32.28172 z M 248.15777,170.728 l 5.16709,95.44162 c 0.2417,4.4661 3.907,7.96236 8.34617,7.96236 h 33.81518 c 4.43917,0 8.10447,-3.49626 8.34618,-7.96236 l 5.16707,-95.44162 c 0.26122,-4.82402 -3.55105,-8.88029 -8.34617,-8.88029 h -44.15003 c -4.79512,0 -8.6067,4.05627 -8.34549,8.88029 z"
     id="path4296"
     style="fill:url(#linearGradient4788);fill-opacity:1;stroke-width:0.699163" />
</svg>
