<?xml version="1.0" encoding="UTF-8" standalone="no"?>
<svg
   viewBox="0 0 512 512"
   version="1.1"
   id="svg12"
   sodipodi:docname="inkscape_triangle-exclamation-solid.svg"
   inkscape:version="1.2.2 (732a01da63, 2022-12-09)"
   xmlns:inkscape="http://www.inkscape.org/namespaces/inkscape"
   xmlns:sodipodi="http://sodipodi.sourceforge.net/DTD/sodipodi-0.dtd"
   xmlns:xlink="http://www.w3.org/1999/xlink"
   xmlns="http://www.w3.org/2000/svg"
   xmlns:svg="http://www.w3.org/2000/svg">
  <defs
     id="defs16">
    <filter
       inkscape:label="Fill Background"
       inkscape:menu="Fill and Transparency"
       inkscape:menu-tooltip="Adds a colorizable opaque background"
       style="color-interpolation-filters:sRGB;"
       id="filter206"
       x="0"
       y="0"
       width="1"
       height="1">
      <feFlood
         result="result1"
         flood-color="rgb(200,55,55)"
         flood-opacity="1"
         id="feFlood194" />
      <feImage
         xlink:href=""
         result="result2"
         id="feImage196" />
      <feBlend
         result="result4"
         in2="result1"
         mode="multiply"
         id="feBlend198" />
      <feMerge
         result="result3"
         id="feMerge204">
        <feMergeNode
           in="result1"
           id="feMergeNode200" />
        <feMergeNode
           in="SourceGraphic"
           id="feMergeNode202" />
      </feMerge>
    </filter>
  </defs>
  <sodipodi:namedview
     id="namedview14"
     pagecolor="#ffffff"
     bordercolor="#000000"
     borderopacity="0.25"
     inkscape:showpageshadow="2"
     inkscape:pageopacity="0.0"
     inkscape:pagecheckerboard="0"
     inkscape:deskcolor="#d1d1d1"
     showgrid="false"
     inkscape:zoom="1.5390625"
     inkscape:cx="23.390863"
     inkscape:cy="256"
     inkscape:window-width="1920"
     inkscape:window-height="986"
     inkscape:window-x="-11"
     inkscape:window-y="-11"
     inkscape:window-maximized="1"
     inkscape:current-layer="svg12" />
  <!--! Font Awesome Pro 6.4.0 by @fontawesome - https://fontawesome.com License - https://fontawesome.com/license (Commercial License) Copyright 2023 Fonticons, Inc. -->
  <path
     d="m 256,32 c 14.2,0 27.3,7.5 34.5,19.8 l 216,368 c 7.3,12.4 7.3,27.7 0.2,40.1 C 499.6,472.3 486.3,480 472,480 H 40 c -14.3,0 -27.6,-7.7 -34.7,-20.1 -7.1,-12.4 -7,-27.8 0.2,-40.1 l 216,-368 C 228.7,39.5 241.8,32 256,32 Z m 0,128 c -13.3,0 -24,10.7 -24,24 v 112 c 0,13.3 10.7,24 24,24 13.3,0 24,-10.7 24,-24 V 184 c 0,-13.3 -10.7,-24 -24,-24 z m 32,224 a 32,32 0 1 0 -64,0 32,32 0 1 0 64,0 z"
     id="path10"
     style="opacity:0.36;fill:#fcfcfc;fill-opacity:1;filter:url(#filter206)"
     inkscape:highlight-color="#e2e2e2"
     transform="matrix(0.6535285,0,0,0.74764322,101.37319,64.603332)" />
  <path
     fill="#000000"
     opacity="0.2"
     d="m 248.20304,18.395943 c -137,0 -247.99999574,111.000007 -247.99999574,248.000007 0,137 110.99999574,248 247.99999574,248 137,0 248,-111 248,-248 0,-137 -111,-248.000007 -248,-248.000007 z"
     id="path2283" />
</svg>
